<svg data-v-423bf9ae="" xmlns="http://www.w3.org/2000/svg" viewBox="0 0 281 90" class="iconLeftSlogan"><!----><!----><!----><g data-v-423bf9ae="" id="8e6ac9e8-fb1c-41c4-a500-5391765310f0" fill="white" transform="matrix(5.808325309113267,0,0,5.808325309113267,114.97816052410296,-19.748307081747335)"><path d="M7.08 13.52L8.97 13.52L4.50 9.71C4.68 9.72 4.83 9.72 4.95 9.72C6.54 9.72 8.20 8.82 8.20 7.11C8.20 5.22 6.59 4.36 5.02 4.36L1.50 4.36L1.50 13.52L2.73 13.52L2.73 9.67ZM2.73 5.52L4.81 5.52C5.99 5.52 6.95 6.08 6.95 7.11C6.95 8.09 6.15 8.72 4.77 8.72C4.07 8.72 3.34 8.63 2.73 8.46ZM12.67 6.55C10.80 6.55 9.38 7.96 9.38 10.21C9.38 12.29 10.80 13.73 12.56 13.73C13.60 13.73 14.44 13.08 14.92 12.36L14.92 13.52L16.04 13.52L16.04 6.69L14.92 6.69L14.92 7.60C14.33 6.95 13.45 6.55 12.67 6.55ZM12.88 7.64C13.71 7.64 14.33 8.07 14.90 8.78L14.92 10.09C14.93 11.55 13.99 12.63 12.74 12.63C11.42 12.63 10.54 11.54 10.54 10.21C10.54 8.89 11.42 7.64 12.88 7.64ZM19.46 5.26C19.97 5.26 20.38 4.81 20.38 4.33C20.38 3.84 19.97 3.40 19.46 3.40C18.92 3.40 18.53 3.84 18.53 4.33C18.53 4.81 18.92 5.26 19.46 5.26ZM20.15 6.69L17.95 6.69L17.95 7.74L19.03 7.74L19.03 13.52L20.15 13.52ZM25.92 6.55C24.99 6.55 24.12 7.23 23.69 7.77L23.69 6.69L22.57 6.69L22.57 13.52L23.69 13.52L23.69 8.98C24.24 8.27 25.01 7.64 25.73 7.64C26.81 7.64 27.32 8.29 27.32 9.46L27.33 13.52L28.45 13.52L28.45 9.35C28.45 7.46 27.32 6.55 25.92 6.55Z"></path></g><!----><g data-v-423bf9ae="" id="be8d95e2-f95a-4717-b50d-76af62d8be20" transform="matrix(1.2025172322188924,0,0,1.2025172322188924,13.405450542180475,-14.55313481765743)" stroke="none" fill="white"><path d="M25.913 32.797l16.736 29.195h12.234L25.676 12.753l-36.79 63.561 5.939 11.136z"></path><path d="M31.367 43.632l-5.456-9.375L-4.631 87.45h73.934l5.811-11.826-61.882.063z"></path><path d="M21.448 62.713l-7.035 12.479h60.701L38.308 12.607H26.672l29.683 50.106z"></path></g><!----><g data-v-423bf9ae="" id="1fa9c102-9c49-476a-a7ee-5922ca628da1" fill="white" transform="matrix(1.1646902179455825,0,0,1.1646902179455825,122.37455177929539,58.043320139388385)"><path d="M1.13 2.21L1.13 11.48L7.24 11.48L7.24 10.47L2.18 10.47L2.18 2.21ZM18.34 10.64C16.93 10.64 16.02 9.65 15.86 8.40L21.73 8.40L21.73 7.98C21.73 5.98 20.40 4.37 18.26 4.37C16.11 4.37 14.78 5.98 14.78 7.98C14.78 9.98 16.18 11.59 18.33 11.59C19.99 11.59 21.03 10.72 21.52 9.46L20.37 9.46C19.99 10.16 19.32 10.64 18.34 10.64ZM18.26 5.32C19.60 5.32 20.44 6.23 20.64 7.42L15.88 7.42C16.07 6.23 16.91 5.32 18.26 5.32ZM33.05 4.37C30.91 4.37 29.58 5.98 29.58 7.98C29.58 9.98 30.91 11.59 33.05 11.59C35.20 11.59 36.53 9.98 36.53 7.98C36.53 5.98 35.20 4.37 33.05 4.37ZM33.05 10.64C31.50 10.64 30.63 9.42 30.63 7.98C30.63 6.54 31.50 5.32 33.05 5.32C34.61 5.32 35.48 6.54 35.48 7.98C35.48 9.42 34.61 10.64 33.05 10.64ZM44.91 4.48L44.91 11.48L45.96 11.48L45.96 7.45C45.96 6.19 46.91 5.32 48.08 5.32C49.22 5.32 50.04 6.16 50.04 7.43L50.04 11.48L51.09 11.48L51.09 7.41C51.09 5.42 49.73 4.37 48.29 4.37C47.15 4.37 46.47 4.90 45.96 5.57L45.96 4.48ZM62.79 4.37C60.75 4.37 59.40 5.98 59.40 7.98C59.40 9.98 60.75 11.59 62.79 11.59C63.95 11.59 64.78 11.12 65.30 10.36L65.30 11.48L66.35 11.48L66.35 4.48L65.30 4.48L65.30 5.61C64.78 4.86 63.95 4.37 62.79 4.37ZM62.93 10.64C61.38 10.64 60.45 9.42 60.45 7.98C60.45 6.54 61.38 5.32 62.93 5.32C64.48 5.32 65.35 6.54 65.35 7.98C65.35 9.42 64.48 10.64 62.93 10.64ZM78.79 4.37C77.06 4.37 76.36 5.73 76.22 6.20L76.22 4.48L75.17 4.48L75.17 11.48L76.22 11.48L76.22 8.40C76.22 6.86 77.17 5.42 78.74 5.42L78.86 5.42L78.86 4.37ZM89.77 4.37C87.72 4.37 86.38 5.98 86.38 7.98C86.38 9.98 87.72 11.59 89.77 11.59C90.93 11.59 91.76 11.12 92.27 10.36L92.27 11.48L93.32 11.48L93.32 1.68L92.27 1.68L92.27 5.61C91.76 4.86 90.93 4.37 89.77 4.37ZM89.91 10.64C88.35 10.64 87.43 9.42 87.43 7.98C87.43 6.54 88.35 5.32 89.91 5.32C91.46 5.32 92.33 6.54 92.33 7.98C92.33 9.42 91.46 10.64 89.91 10.64ZM105.18 4.37C103.04 4.37 101.71 5.98 101.71 7.98C101.71 9.98 103.04 11.59 105.18 11.59C107.32 11.59 108.65 9.98 108.65 7.98C108.65 5.98 107.32 4.37 105.18 4.37ZM105.18 10.64C103.63 10.64 102.76 9.42 102.76 7.98C102.76 6.54 103.63 5.32 105.18 5.32C106.74 5.32 107.60 6.54 107.60 7.98C107.60 9.42 106.74 10.64 105.18 10.64Z"></path></g></svg>